#
#
#

mtllib bullet.mtl


#
# pCube3 Mesh
#
g pCube3 Mesh


#
# pCube3 Mesh_phong4SG
#
usemtl pCube3 Mesh_phong4SG

v -0.264123 -0.319589 0.346268
v 0.487450 -0.319589 0.346268
v 0.487450 0.431984 0.346268
v -0.264123 0.431984 0.346268
v 0.487450 0.431984 -0.405304
v -0.264123 0.431984 -0.405304
v 0.487450 -0.319589 -0.405304
v -0.264123 -0.319589 -0.405304
vn 0.000000 0.000000 1.000000
vn 0.000000 1.000000 0.000000
vn 0.000000 0.000000 -1.000000
vn 0.000000 -1.000000 0.000000
vn 1.000000 0.000000 0.000000
vn -1.000000 0.000000 0.000000
vt 0.375000 0.000000
vt 0.625000 0.000000
vt 0.625000 0.250000
vt 0.375000 0.250000
vt 0.625000 0.500000
vt 0.375000 0.500000
vt 0.625000 0.750000
vt 0.375000 0.750000
vt 0.625000 1.000000
vt 0.375000 1.000000
vt 0.875000 0.000000
vt 0.875000 0.250000
vt 0.125000 0.000000
vt 0.125000 0.250000
f 1/1/1 2/2/1 3/3/1 4/4/1
f 4/4/2 3/3/2 5/5/2 6/6/2
f 6/6/3 5/5/3 7/7/3 8/8/3
f 8/8/4 7/7/4 2/9/4 1/10/4
f 2/2/5 7/11/5 5/12/5 3/3/5
f 8/13/6 1/1/6 4/4/6 6/14/6
