#
#
#

mtllib diamante.mtl


#
# pPlatonic1 Mesh
#
g pPlatonic1 Mesh


#
# pPlatonic1 Mesh_phong4SG
#
usemtl pPlatonic1 Mesh_phong4SG

v 1.266371 4.689641 -2.723724
v 0.397331 7.364267 -0.985649
v 3.541544 6.342651 -0.985649
v -1.545898 4.689641 -0.985649
v 0.397331 2.015015 -0.985649
v 3.541544 3.036631 -0.985649
v 2.135408 7.364267 1.826622
v -1.008802 6.342651 1.826622
v -1.008802 3.036631 1.826622
v 2.135408 2.015015 1.826622
v 4.078640 4.689641 1.826622
v 1.266371 4.689641 3.564697
vn 0.187593 0.577350 -0.794654
vn -0.491124 0.356822 -0.794655
vn -0.491123 0.356822 -0.794655
vn -0.491123 -0.356822 -0.794655
vn 0.187592 -0.577350 -0.794654
vn 0.607062 0.000000 -0.794654
vn 0.303531 0.934172 -0.187593
vn -0.794655 0.577350 -0.187592
vn -0.794655 -0.577350 -0.187592
vn 0.303531 -0.934172 -0.187593
vn 0.982247 0.000000 -0.187593
vn 0.794655 0.577350 0.187592
vn -0.303531 0.934172 0.187593
vn -0.982247 0.000000 0.187593
vn -0.303531 -0.934172 0.187592
vn 0.794655 -0.577350 0.187592
vn 0.794655 -0.577350 0.187592
vn 0.491123 0.356822 0.794655
vn -0.187592 0.577350 0.794654
vn -0.607062 0.000000 0.794654
vn -0.187592 -0.577350 0.794654
vn 0.491123 -0.356822 0.794655
vt 1.000000 0.500000
vt 1.088104 0.823792
vt 0.838104 0.676208
vt 1.176208 0.500000
vt 1.088104 0.176208
vt 0.838104 0.323792
vt 0.588104 0.823792
vt 0.088104 0.823792
vt 0.176208 0.500000
vt 0.338104 0.676208
vt 0.088104 0.176208
vt 0.338104 0.323792
vt 0.588104 0.176208
vt 0.676208 0.500000
vt 0.500000 0.500000
f 1/1/1 2/2/1 3/3/1
f 1/1/2 4/4/3 2/2/3
f 1/1/4 5/5/4 4/4/4
f 1/1/5 6/6/5 5/5/5
f 1/1/6 3/3/6 6/6/6
f 3/3/7 2/2/7 7/7/7
f 2/8/8 4/9/8 8/10/8
f 4/9/9 5/11/9 9/12/9
f 5/5/10 6/6/10 10/13/10
f 6/6/11 3/3/11 11/14/11
f 3/3/12 7/7/12 11/14/12
f 2/8/13 8/10/13 7/7/13
f 4/9/14 9/12/14 8/10/14
f 5/11/15 10/13/15 9/12/15
f 6/6/16 11/14/16 10/13/17
f 11/14/18 7/7/18 12/15/18
f 7/7/19 8/10/19 12/15/19
f 8/10/20 9/12/20 12/15/20
f 9/12/21 10/13/21 12/15/21
f 10/13/22 11/14/22 12/15/22
