# This file uses centimeters as units for non-parametric coordinates.

mtllib piramid.mtl
g default
v 10.207432 6.597186 -53.963708
v 13.643369 1.174007 -55.173783
v 7.232468 1.325842 -56.422027
v 9.357651 1.293862 -50.244374
vt 0.375000 0.000000
vt 0.625000 0.250000
vt 0.875000 0.000000
vt 0.875000 0.250000
vt 0.125000 0.000000
vt 0.125000 0.250000
vn 0.719321 0.317918 0.617661
vn 0.601909 -0.590440 0.537667
vn 0.601909 -0.590440 0.537667
vn -0.024297 -0.999700 0.003183
vn -0.883138 0.355870 0.305652
vn -0.601909 0.590440 -0.537667
vn -0.601909 0.590440 -0.537667
vn 0.188114 0.325912 -0.926496
s 1
g pCube1
usemtl phong4SG
f 1/1/1 4/3/2 2/2/3
f 2/2/3 4/3/2 3/4/4
s 2
f 4/5/5 1/1/6 3/6/7
f 3/6/7 1/1/6 2/2/8
