# This file uses centimeters as units for non-parametric coordinates.

mtllib pyramid.mtl
v 0.097202 3.980739 -0.012733
v 3.533138 -1.442440 -1.222809
v -2.877762 -1.290605 -2.471054
v -0.752580 -1.322585 3.706600
vt 0.375000 0.000000
vt 0.625000 0.250000
vt 0.875000 0.000000
vt 0.875000 0.250000
vt 0.125000 0.000000
vt 0.125000 0.250000
vn 0.719321 0.317918 0.617661
vn 0.601909 -0.590441 0.537667
vn 0.601909 -0.590441 0.537667
vn 0.601909 -0.590441 0.537667
vn 0.601909 -0.590441 0.537667
vn -0.024297 -0.999700 0.003183
vn -0.883138 0.355870 0.305652
vn -0.601909 0.590441 -0.537667
vn -0.601909 0.590441 -0.537667
vn -0.601909 0.590441 -0.537667
vn -0.601909 0.590441 -0.537667
vn 0.188114 0.325912 -0.926496
usemtl pCube1SG
f 1/1/1 4/3/2 2/2/3
f 2/2/4 4/3/5 3/4/6
f 4/5/7 1/1/8 3/6/9
f 3/6/10 1/1/11 2/2/12
